# 3ds Max Wavefront OBJ Exporter v0.97b - (c)2007 guruware
# File Created: 28.02.2020 18:59:40

mtllib 2DCover000.mtl

#
# object PeachWorldHome2DCover000
#

v  0.0100 0.0015 0.0015
v  0.0100 -0.0015 0.0015
v  0.0100 -0.0015 -0.0015
v  0.0100 0.0015 -0.0015
v  0.0150 0.0150 -0.0150
v  0.0150 -0.0150 -0.0150
v  0.0150 0.0150 0.0150
v  0.0150 -0.0150 0.0150
v  0.0000 0.0000 -0.0000
# 9 vertices

vn 0.9820 -0.1337 -0.1337
vn 0.9820 0.1337 -0.1337
vn 0.9820 0.1337 0.1337
vn 0.9820 -0.1337 0.1337
vn 0.3126 0.6717 -0.6717
vn 0.3126 -0.6717 -0.6717
vn 0.3126 0.6717 0.6717
vn 0.3126 -0.6717 0.6717
vn -1.0000 0.0000 -0.0000
# 9 vertex normals

o PeachWorldHome2DCover000
g PeachWorldHome2DCover000
usemtl wire_255255000
s 1
f 1//1 2//2 3//3 4//4 
s 2
f 5//5 4//4 3//3 6//6 
s 4
f 7//7 1//1 4//4 5//5 
s 8
f 2//2 8//8 6//6 3//3 
s 16
f 1//1 7//7 8//8 2//2 
s 32
f 9//9 7//7 5//5 
s 64
f 9//9 5//5 6//6 
s 128
f 9//9 6//6 8//8 
s 256
f 9//9 8//8 7//7 
# 5 polygons - 4 triangles

#
# object polySurface6491__Dot2D_rep
#

v  -14679.1709 -16281.4199 -1008.9999
v  -14622.4531 -16094.4453 -1110.0000
v  -14622.4531 -16094.4453 -1008.9999
v  -14679.1709 -16281.4199 -1110.0000
v  -14771.2764 -16453.7344 -1008.9999
v  -14679.1709 -16281.4199 -1330.0000
v  -14622.4531 -16094.4453 -1330.0000
v  -14622.4531 -16094.4453 -1379.0016
v  -14679.1709 -16281.4199 -1379.0016
v  -14771.2764 -16453.7344 -1330.0000
v  -14771.2764 -16453.7344 -1379.0016
v  -14771.2764 -16453.7344 -1110.0000
v  -14895.2285 -16604.7734 -1008.9999
v  -14895.2285 -16604.7734 -1330.0000
v  -14895.2285 -16604.7734 -1379.0016
v  -14895.2285 -16604.7734 -1110.0000
v  -15046.2646 -16728.7246 -1008.9999
v  -15046.2646 -16728.7246 -1330.0000
v  -15046.2646 -16728.7246 -1379.0016
v  -15046.2646 -16728.7246 -1110.0000
v  -15218.5801 -16820.8281 -1008.9999
v  -15218.5801 -16820.8281 -1330.0000
v  -15218.5801 -16820.8281 -1379.0016
v  -15218.5801 -16820.8281 -1110.0000
v  -15405.5537 -16877.5469 -1008.9999
v  -15405.5537 -16877.5469 -1330.0000
v  -15405.5537 -16877.5469 -1379.0016
v  -15405.5537 -16877.5469 -1110.0000
v  -15600.0010 -16896.6992 -1008.9999
v  -15600.0010 -16896.6992 -1330.0000
v  -15600.0010 -16896.6992 -1379.0016
v  -15600.0010 -16896.6992 -1110.0000
v  -15794.4473 -16877.5469 -1008.9999
v  -15794.4473 -16877.5469 -1330.0000
v  -15794.4473 -16877.5469 -1379.0016
v  -15794.4473 -16877.5469 -1110.0000
v  -15981.4209 -16820.8281 -1008.9999
v  -15981.4209 -16820.8281 -1110.0000
v  -15981.4209 -16820.8281 -1330.0000
v  -15981.4209 -16820.8281 -1379.0016
v  -14603.3018 -15900.0000 -1379.0016
v  -14603.3018 -15900.0000 -1330.0000
v  -14622.4521 -15705.5518 -1379.0016
v  -14622.4521 -15705.5518 -1330.0000
v  -14622.4521 -15705.5518 -1110.0000
v  -14603.3018 -15900.0000 -1110.0000
v  -14603.3018 -15900.0000 -1008.9999
v  -14622.4521 -15705.5518 -1008.9999
v  -16153.7363 -16728.7246 -1008.9999
v  -16153.7363 -16728.7246 -1110.0000
v  -16304.7734 -16604.7734 -1008.9999
v  -16153.7363 -16728.7246 -1330.0000
v  -16153.7363 -16728.7246 -1379.0016
v  -16304.7734 -16604.7734 -1330.0000
v  -16304.7734 -16604.7734 -1379.0016
v  -16304.7734 -16604.7734 -1110.0000
v  -16428.5313 -16453.5273 -1008.9999
v  -16428.5313 -16453.5273 -1330.0000
v  -16428.5313 -16453.5273 -1379.0016
v  -16428.5313 -16453.5273 -1110.0000
v  -16520.8301 -16281.4199 -1008.9999
v  -16520.8301 -16281.4199 -1330.0000
v  -16520.8301 -16281.4199 -1379.0016
v  -16520.8301 -16281.4199 -1110.0000
v  -16577.5488 -16094.4453 -1008.9999
v  -16577.5488 -16094.4453 -1330.0000
v  -16577.5488 -16094.4453 -1379.0016
v  -16577.5488 -16094.4453 -1110.0000
v  -16596.6992 -15900.0000 -1008.9999
v  -16596.6992 -15900.0000 -1330.0000
v  -16596.6992 -15900.0000 -1379.0016
v  -16596.6992 -15900.0000 -1110.0000
v  -16577.5508 -15705.5518 -1008.9999
v  -16577.5508 -15705.5518 -1330.0000
v  -16577.5508 -15705.5518 -1379.0016
v  -16577.5508 -15705.5518 -1110.0000
v  -16520.8320 -15518.5801 -1008.9999
v  -16520.8320 -15518.5801 -1110.0000
v  -16520.8320 -15518.5801 -1330.0000
v  -16520.8320 -15518.5801 -1379.0016
v  -16428.7285 -15346.2637 -1008.9999
v  -16428.7285 -15346.2637 -1110.0000
v  -16304.7754 -15195.2256 -1008.9999
v  -16428.7285 -15346.2637 -1330.0000
v  -16428.7285 -15346.2637 -1379.0016
v  -16304.7754 -15195.2256 -1330.0000
v  -16304.7754 -15195.2256 -1379.0016
v  -16304.7754 -15195.2256 -1110.0000
v  -16153.7373 -15071.2734 -1008.9999
v  -16153.7373 -15071.2734 -1330.0000
v  -16153.7373 -15071.2734 -1379.0016
v  -16153.7373 -15071.2734 -1110.0000
v  -15981.4209 -14979.1680 -1008.9999
v  -15981.4209 -14979.1680 -1330.0000
v  -15981.4209 -14979.1680 -1379.0016
v  -15981.4209 -14979.1680 -1110.0000
v  -15794.4482 -14922.4512 -1008.9999
v  -15794.4482 -14922.4512 -1330.0000
v  -15794.4482 -14922.4512 -1379.0016
v  -15794.4482 -14922.4512 -1110.0000
v  -15600.0010 -14903.3008 -1008.9999
v  -15600.0010 -14903.3008 -1330.0000
v  -15600.0010 -14903.3008 -1379.0016
v  -15600.0010 -14903.3008 -1110.0000
v  -15405.5537 -14922.4512 -1008.9999
v  -15405.5537 -14922.4512 -1330.0000
v  -15405.5537 -14922.4512 -1379.0016
v  -15405.5537 -14922.4512 -1110.0000
v  -15218.5801 -14979.1680 -1008.9999
v  -15218.5801 -14979.1680 -1330.0000
v  -15218.5801 -14979.1680 -1379.0016
v  -15218.5801 -14979.1680 -1110.0000
v  -15046.2646 -15071.2734 -1008.9999
v  -15046.2646 -15071.2734 -1330.0000
v  -15046.2646 -15071.2734 -1379.0016
v  -15046.2646 -15071.2734 -1110.0000
v  -14895.2266 -15195.2256 -1008.9999
v  -14895.2266 -15195.2256 -1330.0000
v  -14895.2266 -15195.2256 -1379.0016
v  -14895.2266 -15195.2256 -1110.0000
v  -14771.2754 -15346.2637 -1008.9999
v  -14771.2754 -15346.2637 -1330.0000
v  -14771.2754 -15346.2637 -1379.0016
v  -14771.2754 -15346.2637 -1110.0000
v  -14679.1699 -15518.5791 -1008.9999
v  -14679.1699 -15518.5791 -1330.0000
v  -14679.1699 -15518.5791 -1379.0016
v  -14679.1699 -15518.5791 -1110.0000
# 128 vertices

vn 0.9138 -0.4061 -0.0000
vn 0.9806 -0.1961 -0.0000
vn 0.8321 -0.5547 -0.0000
vn 0.6585 -0.7526 -0.0000
vn 0.6000 -0.8000 -0.0000
vn 0.3714 -0.9285 -0.0000
vn 0.1961 -0.9806 -0.0000
vn 0.0000 -1.0000 -0.0000
vn -0.1961 -0.9806 -0.0000
vn -0.3714 -0.9285 -0.0000
vn 1.0000 0.0000 -0.0000
vn 0.9806 0.1961 -0.0000
vn -0.6000 -0.8000 -0.0000
vn -0.6585 -0.7526 -0.0000
vn -0.8000 -0.6000 -0.0000
vn -0.9285 -0.3714 -0.0000
vn -0.9806 -0.1961 -0.0000
vn -1.0000 0.0000 -0.0000
vn -0.9806 0.1961 -0.0000
vn -0.9285 0.3714 -0.0000
vn -0.8000 0.6000 -0.0000
vn -0.7071 0.7071 -0.0000
vn -0.5547 0.8321 -0.0000
vn -0.4061 0.9138 -0.0000
vn -0.1961 0.9806 -0.0000
vn 0.0000 1.0000 -0.0000
vn 0.1961 0.9806 -0.0000
vn 0.4061 0.9138 -0.0000
vn 0.5547 0.8321 -0.0000
vn 0.7071 0.7071 -0.0000
vn 0.8321 0.5547 -0.0000
vn 0.9138 0.4061 -0.0000
# 32 vertex normals

vt 6.1704 0.3672 0.0000
vt 6.0460 0.4304 0.0000
vt 6.0463 0.3672 0.0000
vt 6.1703 0.4304 0.0000
vt 6.2946 0.3672 0.0000
vt 6.1703 0.5679 0.0000
vt 6.0462 0.5678 0.0000
vt 6.0460 0.5985 0.0000
vt 6.1703 0.5985 0.0000
vt 6.2946 0.5679 0.0000
vt 6.2946 0.5985 0.0000
vt 6.2946 0.4304 0.0000
vt 6.4189 0.3672 0.0000
vt 6.4189 0.5679 0.0000
vt 6.4189 0.5985 0.0000
vt 6.4189 0.4304 0.0000
vt 6.5432 0.3672 0.0000
vt 6.5432 0.5679 0.0000
vt 6.5432 0.5985 0.0000
vt 6.5432 0.4304 0.0000
vt 6.6676 0.3672 0.0000
vt 6.6676 0.5679 0.0000
vt 6.6676 0.5985 0.0000
vt 6.6676 0.4304 0.0000
vt 6.7919 0.3672 0.0000
vt 6.7919 0.5679 0.0000
vt 6.7919 0.5985 0.0000
vt 6.7919 0.4304 0.0000
vt 6.9162 0.3672 0.0000
vt 6.9162 0.5679 0.0000
vt 6.9162 0.5985 0.0000
vt 6.9162 0.4304 0.0000
vt 7.0405 0.3672 0.0000
vt 7.0405 0.5679 0.0000
vt 7.0405 0.5985 0.0000
vt 7.0405 0.4304 0.0000
vt 7.1648 0.3672 0.0000
vt 7.1648 0.4304 0.0000
vt 7.1648 0.5679 0.0000
vt 7.1648 0.5985 0.0000
vt 10.0237 0.5679 0.0000
vt 10.0239 0.5985 0.0000
vt 9.8996 0.5985 0.0000
vt 9.8996 0.5679 0.0000
vt 9.7753 0.5985 0.0000
vt 9.7753 0.5679 0.0000
vt 9.7753 0.4304 0.0000
vt 9.8996 0.4304 0.0000
vt 10.0238 0.4304 0.0000
vt 10.0243 0.3672 0.0000
vt 9.8998 0.3672 0.0000
vt 9.7753 0.3672 0.0000
vt 7.2891 0.3672 0.0000
vt 7.2891 0.4304 0.0000
vt 7.4134 0.3672 0.0000
vt 7.2891 0.5679 0.0000
vt 7.2891 0.5985 0.0000
vt 7.4134 0.5679 0.0000
vt 7.4134 0.5985 0.0000
vt 7.4134 0.4304 0.0000
vt 7.5377 0.3672 0.0000
vt 7.5377 0.5679 0.0000
vt 7.5377 0.5985 0.0000
vt 7.5377 0.4304 0.0000
vt 7.6620 0.3672 0.0000
vt 7.6620 0.5679 0.0000
vt 7.6620 0.5985 0.0000
vt 7.6620 0.4304 0.0000
vt 7.7863 0.3672 0.0000
vt 7.7863 0.5679 0.0000
vt 7.7863 0.5985 0.0000
vt 7.7863 0.4304 0.0000
vt 7.9107 0.3672 0.0000
vt 7.9107 0.5679 0.0000
vt 7.9107 0.5985 0.0000
vt 7.9107 0.4304 0.0000
vt 8.0350 0.3672 0.0000
vt 8.0350 0.5679 0.0000
vt 8.0350 0.5985 0.0000
vt 8.0350 0.4304 0.0000
vt 8.1593 0.3672 0.0000
vt 8.1593 0.4304 0.0000
vt 8.1593 0.5679 0.0000
vt 8.1593 0.5985 0.0000
vt 8.2836 0.3672 0.0000
vt 8.2836 0.4304 0.0000
vt 8.4079 0.3672 0.0000
vt 8.2836 0.5679 0.0000
vt 8.2836 0.5985 0.0000
vt 8.4079 0.5679 0.0000
vt 8.4079 0.5985 0.0000
vt 8.4079 0.4304 0.0000
vt 8.5322 0.3672 0.0000
vt 8.5322 0.5679 0.0000
vt 8.5322 0.5985 0.0000
vt 8.5322 0.4304 0.0000
vt 8.6565 0.3672 0.0000
vt 8.6565 0.5679 0.0000
vt 8.6565 0.5985 0.0000
vt 8.6565 0.4304 0.0000
vt 8.7808 0.3672 0.0000
vt 8.7808 0.5679 0.0000
vt 8.7808 0.5985 0.0000
vt 8.7808 0.4304 0.0000
vt 8.9051 0.3672 0.0000
vt 8.9051 0.5679 0.0000
vt 8.9051 0.5985 0.0000
vt 8.9051 0.4304 0.0000
vt 9.0294 0.3672 0.0000
vt 9.0294 0.5679 0.0000
vt 9.0294 0.5985 0.0000
vt 9.0294 0.4304 0.0000
vt 9.1537 0.3672 0.0000
vt 9.1537 0.5679 0.0000
vt 9.1537 0.5985 0.0000
vt 9.1537 0.4304 0.0000
vt 9.2781 0.3672 0.0000
vt 9.2781 0.5679 0.0000
vt 9.2781 0.5985 0.0000
vt 9.2781 0.4304 0.0000
vt 9.4024 0.3672 0.0000
vt 9.4024 0.5679 0.0000
vt 9.4024 0.5985 0.0000
vt 9.4024 0.4304 0.0000
vt 9.5267 0.3672 0.0000
vt 9.5267 0.5679 0.0000
vt 9.5267 0.5985 0.0000
vt 9.5267 0.4304 0.0000
vt 9.6510 0.3672 0.0000
vt 9.6510 0.5679 0.0000
vt 9.6510 0.5985 0.0000
vt 9.6510 0.4304 0.0000
# 132 texture coords

o polySurface6491__Dot2D_rep
g polySurface6491__Dot2D_rep
usemtl Dot2D_rep
s 1
f 10/1/10 11/2/11 12/3/11 
f 13/4/10 11/2/11 10/1/10 
f 13/4/10 10/1/10 14/5/12 
f 13/4/10 15/6/10 11/2/11 
f 11/2/11 15/6/10 16/7/11 
f 15/6/10 17/8/11 16/7/11 
f 15/6/10 18/9/10 17/8/11 
f 19/10/12 18/9/10 15/6/10 
f 13/4/10 19/10/12 15/6/10 
f 19/10/12 20/11/12 18/9/10 
f 13/4/10 14/5/12 21/12/12 
f 13/4/10 21/12/12 19/10/12 
f 14/5/12 22/13/13 21/12/12 
f 19/10/12 23/14/13 20/11/12 
f 21/12/12 23/14/13 19/10/12 
f 23/14/13 24/15/13 20/11/12 
f 21/12/12 22/13/13 25/16/13 
f 21/12/12 25/16/13 23/14/13 
f 22/13/13 26/17/14 25/16/13 
f 23/14/13 27/18/14 24/15/13 
f 25/16/13 27/18/14 23/14/13 
f 27/18/14 28/19/14 24/15/13 
f 25/16/13 26/17/14 29/20/14 
f 25/16/13 29/20/14 27/18/14 
f 26/17/14 30/21/15 29/20/14 
f 27/18/14 31/22/15 28/19/14 
f 29/20/14 31/22/15 27/18/14 
f 31/22/15 32/23/15 28/19/14 
f 29/20/14 30/21/15 33/24/15 
f 29/20/14 33/24/15 31/22/15 
f 30/21/15 34/25/16 33/24/15 
f 31/22/15 35/26/16 32/23/15 
f 33/24/15 35/26/16 31/22/15 
f 35/26/16 36/27/16 32/23/15 
f 33/24/15 34/25/16 37/28/16 
f 33/24/15 37/28/16 35/26/16 
f 34/25/16 38/29/17 37/28/16 
f 35/26/16 39/30/17 36/27/16 
f 37/28/16 39/30/17 35/26/16 
f 39/30/17 40/31/17 36/27/16 
f 37/28/16 38/29/17 41/32/17 
f 37/28/16 41/32/17 39/30/17 
f 38/29/17 42/33/18 41/32/17 
f 39/30/17 43/34/18 40/31/17 
f 41/32/17 43/34/18 39/30/17 
f 43/34/18 44/35/18 40/31/17 
f 41/32/17 42/33/18 45/36/18 
f 41/32/17 45/36/18 43/34/18 
f 42/33/18 46/37/19 45/36/18 
f 45/36/18 46/37/19 47/38/19 
f 45/36/18 47/38/19 48/39/19 
f 45/36/18 48/39/19 43/34/18 
f 43/34/18 48/39/19 44/35/18 
f 48/39/19 49/40/19 44/35/18 
f 16/41/11 17/42/11 50/43/20 
f 51/44/20 16/41/11 50/43/20 
f 51/44/20 50/43/20 52/45/21 
f 53/46/21 51/44/20 52/45/21 
f 54/47/21 51/44/20 53/46/21 
f 55/48/20 16/41/11 51/44/20 
f 54/47/21 55/48/20 51/44/20 
f 55/48/20 11/49/11 16/41/11 
f 55/48/20 12/50/11 11/49/11 
f 56/51/20 12/50/11 55/48/20 
f 54/47/21 56/51/20 55/48/20 
f 57/52/21 56/51/20 54/47/21 
f 46/37/19 58/53/22 47/38/19 
f 47/38/19 58/53/22 59/54/22 
f 58/53/22 60/55/23 59/54/22 
f 47/38/19 59/54/22 61/56/22 
f 47/38/19 61/56/22 48/39/19 
f 48/39/19 61/56/22 49/40/19 
f 61/56/22 62/57/22 49/40/19 
f 61/56/22 63/58/23 62/57/22 
f 59/54/22 63/58/23 61/56/22 
f 63/58/23 64/59/23 62/57/22 
f 59/54/22 60/55/23 65/60/23 
f 59/54/22 65/60/23 63/58/23 
f 60/55/23 66/61/24 65/60/23 
f 63/58/23 67/62/24 64/59/23 
f 65/60/23 67/62/24 63/58/23 
f 67/62/24 68/63/24 64/59/23 
f 65/60/23 66/61/24 69/64/24 
f 65/60/23 69/64/24 67/62/24 
f 66/61/24 70/65/25 69/64/24 
f 67/62/24 71/66/25 68/63/24 
f 69/64/24 71/66/25 67/62/24 
f 71/66/25 72/67/25 68/63/24 
f 69/64/24 70/65/25 73/68/25 
f 69/64/24 73/68/25 71/66/25 
f 70/65/25 74/69/26 73/68/25 
f 71/66/25 75/70/26 72/67/25 
f 73/68/25 75/70/26 71/66/25 
f 75/70/26 76/71/26 72/67/25 
f 73/68/25 74/69/26 77/72/26 
f 73/68/25 77/72/26 75/70/26 
f 74/69/26 78/73/27 77/72/26 
f 75/70/26 79/74/27 76/71/26 
f 77/72/26 79/74/27 75/70/26 
f 79/74/27 80/75/27 76/71/26 
f 77/72/26 78/73/27 81/76/27 
f 77/72/26 81/76/27 79/74/27 
f 78/73/27 82/77/28 81/76/27 
f 79/74/27 83/78/28 80/75/27 
f 81/76/27 83/78/28 79/74/27 
f 83/78/28 84/79/28 80/75/27 
f 81/76/27 82/77/28 85/80/28 
f 81/76/27 85/80/28 83/78/28 
f 82/77/28 86/81/29 85/80/28 
f 85/80/28 86/81/29 87/82/29 
f 85/80/28 87/82/29 88/83/29 
f 85/80/28 88/83/29 83/78/28 
f 83/78/28 88/83/29 84/79/28 
f 88/83/29 89/84/29 84/79/28 
f 86/81/29 90/85/30 87/82/29 
f 87/82/29 90/85/30 91/86/30 
f 90/85/30 92/87/31 91/86/30 
f 87/82/29 91/86/30 93/88/30 
f 87/82/29 93/88/30 88/83/29 
f 88/83/29 93/88/30 89/84/29 
f 93/88/30 94/89/30 89/84/29 
f 93/88/30 95/90/31 94/89/30 
f 91/86/30 95/90/31 93/88/30 
f 95/90/31 96/91/31 94/89/30 
f 91/86/30 92/87/31 97/92/31 
f 91/86/30 97/92/31 95/90/31 
f 92/87/31 98/93/32 97/92/31 
f 95/90/31 99/94/32 96/91/31 
f 97/92/31 99/94/32 95/90/31 
f 99/94/32 100/95/32 96/91/31 
f 97/92/31 98/93/32 101/96/32 
f 97/92/31 101/96/32 99/94/32 
f 98/93/32 102/97/33 101/96/32 
f 99/94/32 103/98/33 100/95/32 
f 101/96/32 103/98/33 99/94/32 
f 103/98/33 104/99/33 100/95/32 
f 101/96/32 102/97/33 105/100/33 
f 101/96/32 105/100/33 103/98/33 
f 102/97/33 106/101/34 105/100/33 
f 103/98/33 107/102/34 104/99/33 
f 105/100/33 107/102/34 103/98/33 
f 107/102/34 108/103/34 104/99/33 
f 105/100/33 106/101/34 109/104/34 
f 105/100/33 109/104/34 107/102/34 
f 106/101/34 110/105/35 109/104/34 
f 107/102/34 111/106/35 108/103/34 
f 109/104/34 111/106/35 107/102/34 
f 111/106/35 112/107/35 108/103/34 
f 109/104/34 110/105/35 113/108/35 
f 109/104/34 113/108/35 111/106/35 
f 110/105/35 114/109/36 113/108/35 
f 111/106/35 115/110/36 112/107/35 
f 113/108/35 115/110/36 111/106/35 
f 115/110/36 116/111/36 112/107/35 
f 113/108/35 114/109/36 117/112/36 
f 113/108/35 117/112/36 115/110/36 
f 114/109/36 118/113/37 117/112/36 
f 115/110/36 119/114/37 116/111/36 
f 117/112/36 119/114/37 115/110/36 
f 119/114/37 120/115/37 116/111/36 
f 117/112/36 118/113/37 121/116/37 
f 117/112/36 121/116/37 119/114/37 
f 118/113/37 122/117/38 121/116/37 
f 119/114/37 123/118/38 120/115/37 
f 121/116/37 123/118/38 119/114/37 
f 123/118/38 124/119/38 120/115/37 
f 121/116/37 122/117/38 125/120/38 
f 121/116/37 125/120/38 123/118/38 
f 122/117/38 126/121/39 125/120/38 
f 123/118/38 127/122/39 124/119/38 
f 125/120/38 127/122/39 123/118/38 
f 127/122/39 128/123/39 124/119/38 
f 125/120/38 126/121/39 129/124/39 
f 125/120/38 129/124/39 127/122/39 
f 126/121/39 130/125/40 129/124/39 
f 127/122/39 131/126/40 128/123/39 
f 129/124/39 131/126/40 127/122/39 
f 131/126/40 132/127/40 128/123/39 
f 129/124/39 130/125/40 133/128/40 
f 129/124/39 133/128/40 131/126/40 
f 130/125/40 134/129/41 133/128/40 
f 131/126/40 135/130/41 132/127/40 
f 133/128/40 135/130/41 131/126/40 
f 135/130/41 136/131/41 132/127/40 
f 133/128/40 134/129/41 137/132/41 
f 133/128/40 137/132/41 135/130/41 
f 134/129/41 57/52/21 137/132/41 
f 137/132/41 57/52/21 54/47/21 
f 137/132/41 54/47/21 53/46/21 
f 137/132/41 53/46/21 135/130/41 
f 135/130/41 53/46/21 136/131/41 
f 53/46/21 52/45/21 136/131/41 
# 0 polygons - 192 triangles

